{
	"asset":{
		"generator":"Khronos glTF Blender I/O v5.2.40",
		"version":"2.0"
	},
	"scene":0,
	"scenes":[
		{
			"name":"Scene",
			"nodes":[
				0
			]
		}
	],
	"nodes":[
		{
			"mesh":0,
			"name":"DogEyeball"
		}
	],
	"materials":[
		{
			"doubleSided":true,
			"name":"DogEyeball",
			"pbrMetallicRoughness":{
				"baseColorFactor":[
					0.800000011920929,
					0.800000011920929,
					0.800000011920929,
					1
				],
				"metallicFactor":0,
				"roughnessFactor":0.5
			}
		}
	],
	"meshes":[
		{
			"name":"DogEyeball",
			"primitives":[
				{
					"attributes":{
						"POSITION":0,
						"NORMAL":1,
						"TEXCOORD_0":2
					},
					"indices":3,
					"material":0
				}
			]
		}
	],
	"accessors":[
		{
			"bufferView":0,
			"componentType":5126,
			"count":8383,
			"max":[
				0.9999995827674866,
				1,
				0.9999992251396179
			],
			"min":[
				-0.9999986886978149,
				-1,
				-0.9999983310699463
			],
			"type":"VEC3"
		},
		{
			"bufferView":1,
			"componentType":5126,
			"count":8383,
			"type":"VEC3"
		},
		{
			"bufferView":2,
			"componentType":5126,
			"count":8383,
			"type":"VEC2"
		},
		{
			"bufferView":3,
			"componentType":5123,
			"count":48384,
			"type":"SCALAR"
		}
	],
	"bufferViews":[
		{
			"buffer":0,
			"byteLength":100596,
			"byteOffset":0,
			"target":34962
		},
		{
			"buffer":0,
			"byteLength":100596,
			"byteOffset":100596,
			"target":34962
		},
		{
			"buffer":0,
			"byteLength":67064,
			"byteOffset":201192,
			"target":34962
		},
		{
			"buffer":0,
			"byteLength":96768,
			"byteOffset":268256,
			"target":34963
		}
	],
	"buffers":[
		{
			"byteLength":365024,
			"uri":"DogEyeball.bin"
		}
	]
}
