# palm — generated by generate_vegetation.py (issue #880). Do not hand-edit.
# Palm, base at origin, unit height. Impostor source for the Drift island field.
o palm
v 0.0500 0.0000 0.0000
v 0.0250 0.0000 0.0433
v -0.0250 0.0000 0.0433
v -0.0500 0.0000 0.0000
v -0.0250 0.0000 -0.0433
v 0.0250 0.0000 -0.0433
v 0.0553 0.2800 0.0000
v 0.0343 0.2800 0.0364
v -0.0077 0.2800 0.0364
v -0.0287 0.2800 0.0000
v -0.0077 0.2800 -0.0364
v 0.0343 0.2800 -0.0364
v 0.0873 0.5500 0.0000
v 0.0703 0.5500 0.0294
v 0.0363 0.5500 0.0294
v 0.0193 0.5500 0.0000
v 0.0363 0.5500 -0.0294
v 0.0703 0.5500 -0.0294
v 0.1480 0.7400 0.0000
v 0.1340 0.7400 0.0242
v 0.1060 0.7400 0.0242
v 0.0920 0.7400 0.0000
v 0.1060 0.7400 -0.0242
v 0.1340 0.7400 -0.0242
v 0.1200 0.7400 0.0350
v 0.1200 0.7400 -0.0350
v 0.3400 0.9400 0.0000
v 0.5600 0.7600 0.0000
v 0.0926 0.7400 0.0218
v 0.1474 0.7400 -0.0218
v 0.2572 0.9400 0.1720
v 0.3943 0.7600 0.3440
v 0.0859 0.7400 -0.0078
v 0.1541 0.7400 0.0078
v 0.0710 0.9400 0.2145
v 0.0221 0.7600 0.4290
v 0.1048 0.7400 -0.0315
v 0.1352 0.7400 0.0315
v -0.0782 0.9400 0.0955
v -0.2764 0.7600 0.1909
v 0.1352 0.7400 -0.0315
v 0.1048 0.7400 0.0315
v -0.0782 0.9400 -0.0955
v -0.2764 0.7600 -0.1909
v 0.1541 0.7400 -0.0078
v 0.0859 0.7400 0.0078
v 0.0710 0.9400 -0.2145
v 0.0221 0.7600 -0.4290
v 0.1474 0.7400 0.0218
v 0.0926 0.7400 -0.0218
v 0.2572 0.9400 -0.1720
v 0.3943 0.7600 -0.3440
f 1 7 8
f 1 8 2
f 2 8 9
f 2 9 3
f 3 9 10
f 3 10 4
f 4 10 11
f 4 11 5
f 5 11 12
f 5 12 6
f 6 12 7
f 6 7 1
f 7 13 14
f 7 14 8
f 8 14 15
f 8 15 9
f 9 15 16
f 9 16 10
f 10 16 17
f 10 17 11
f 11 17 18
f 11 18 12
f 12 18 13
f 12 13 7
f 13 19 20
f 13 20 14
f 14 20 21
f 14 21 15
f 15 21 22
f 15 22 16
f 16 22 23
f 16 23 17
f 17 23 24
f 17 24 18
f 18 24 19
f 18 19 13
f 25 27 26
f 25 28 27
f 26 27 28
f 29 31 30
f 29 32 31
f 30 31 32
f 33 35 34
f 33 36 35
f 34 35 36
f 37 39 38
f 37 40 39
f 38 39 40
f 41 43 42
f 41 44 43
f 42 43 44
f 45 47 46
f 45 48 47
f 46 47 48
f 49 51 50
f 49 52 51
f 50 51 52
