# pine — generated by generate_vegetation.py (issue #880). Do not hand-edit.
# Conifer, base at origin, unit height. Impostor source for the Drift island field.
o pine
v 0.0450 0.0000 0.0000
v 0.0225 0.0000 0.0390
v -0.0225 0.0000 0.0390
v -0.0450 0.0000 0.0000
v -0.0225 0.0000 -0.0390
v 0.0225 0.0000 -0.0390
v 0.0300 0.4200 0.0000
v 0.0150 0.4200 0.0260
v -0.0150 0.4200 0.0260
v -0.0300 0.4200 0.0000
v -0.0150 0.4200 -0.0260
v 0.0150 0.4200 -0.0260
v 0.1900 0.2600 0.0000
v 0.0950 0.2600 0.1645
v -0.0950 0.2600 0.1645
v -0.1900 0.2600 0.0000
v -0.0950 0.2600 -0.1645
v 0.0950 0.2600 -0.1645
v 0.0000 0.6200 0.0000
v 0.0000 0.2600 0.0000
v 0.1500 0.4800 0.0000
v 0.0750 0.4800 0.1299
v -0.0750 0.4800 0.1299
v -0.1500 0.4800 0.0000
v -0.0750 0.4800 -0.1299
v 0.0750 0.4800 -0.1299
v 0.0000 0.8200 0.0000
v 0.0000 0.4800 0.0000
v 0.1000 0.6800 0.0000
v 0.0500 0.6800 0.0866
v -0.0500 0.6800 0.0866
v -0.1000 0.6800 0.0000
v -0.0500 0.6800 -0.0866
v 0.0500 0.6800 -0.0866
v 0.0000 1.0000 0.0000
v 0.0000 0.6800 0.0000
f 1 7 8
f 1 8 2
f 2 8 9
f 2 9 3
f 3 9 10
f 3 10 4
f 4 10 11
f 4 11 5
f 5 11 12
f 5 12 6
f 6 12 7
f 6 7 1
f 13 19 14
f 14 19 15
f 15 19 16
f 16 19 17
f 17 19 18
f 18 19 13
f 14 20 13
f 15 20 14
f 16 20 15
f 17 20 16
f 18 20 17
f 13 20 18
f 21 27 22
f 22 27 23
f 23 27 24
f 24 27 25
f 25 27 26
f 26 27 21
f 22 28 21
f 23 28 22
f 24 28 23
f 25 28 24
f 26 28 25
f 21 28 26
f 29 35 30
f 30 35 31
f 31 35 32
f 32 35 33
f 33 35 34
f 34 35 29
f 30 36 29
f 31 36 30
f 32 36 31
f 33 36 32
f 34 36 33
f 29 36 34
