{
	"asset":{
		"generator":"Khronos glTF Blender I/O v5.2.40",
		"version":"2.0"
	},
	"scene":0,
	"scenes":[
		{
			"name":"Scene",
			"nodes":[
				20
			]
		}
	],
	"nodes":[
		{
			"name":"Bone.001_L",
			"rotation":[
				-0.40914028882980347,
				0.8971760869026184,
				-0.12138217687606812,
				0.11377925425767899
			],
			"scale":[
				0.9999999403953552,
				0.9999997019767761,
				0.9999999403953552
			],
			"translation":[
				-1.862645149230957e-09,
				1.1479741334915161,
				7.729977369308472e-08
			]
		},
		{
			"name":"Bone.001_R",
			"rotation":[
				-0.34721291065216064,
				-0.8804823756217957,
				0.19305935502052307,
				0.25869300961494446
			],
			"scale":[
				0.9999999403953552,
				0.9999997615814209,
				0.9999998807907104
			],
			"translation":[
				-0.03902263194322586,
				1.1464173793792725,
				0.006686254404485226
			]
		},
		{
			"name":"Bone.002",
			"rotation":[
				0.7171674966812134,
				0.10008031129837036,
				-0.04097616299986839,
				0.6884589195251465
			],
			"scale":[
				1,
				1,
				1.0000001192092896
			],
			"translation":[
				-0.03902263194322586,
				1.1464173793792725,
				0.006686254404485226
			]
		},
		{
			"children":[
				0,
				1,
				2
			],
			"name":"Bone.001",
			"rotation":[
				-0.26444312930107117,
				-0.4270388185977936,
				-0.07574252784252167,
				0.8613772392272949
			],
			"scale":[
				1,
				0.9999998211860657,
				0.9999999403953552
			],
			"translation":[
				-0.03773730248212814,
				1.279781699180603,
				-0.033653341233730316
			]
		},
		{
			"name":"Bone_L.002",
			"rotation":[
				-0.014963536523282528,
				0.022398676723241806,
				-0.06491533666849136,
				0.9975271821022034
			],
			"scale":[
				1.0000001192092896,
				1.0000001192092896,
				1
			],
			"translation":[
				3.3527612686157227e-08,
				0.5033208727836609,
				-1.1175870895385742e-08
			]
		},
		{
			"children":[
				4
			],
			"name":"Bone_L.001",
			"rotation":[
				0.024984927847981453,
				0.2538789212703705,
				-0.2811184525489807,
				0.9251452088356018
			],
			"scale":[
				1.000000238418579,
				0.9999999403953552,
				1
			],
			"translation":[
				1.1175870895385742e-07,
				0.42985960841178894,
				2.9802322387695312e-08
			]
		},
		{
			"children":[
				5
			],
			"name":"Bone_L",
			"rotation":[
				0.5941674709320068,
				-0.622337818145752,
				0.26408642530441284,
				0.43579694628715515
			],
			"scale":[
				0.9999998211860657,
				0.9999995827674866,
				0.9999998211860657
			],
			"translation":[
				1.4435499906539917e-08,
				1.281779408454895,
				6.146728992462158e-08
			]
		},
		{
			"name":"Bone_R.002",
			"rotation":[
				-0.01496342197060585,
				-0.022398382425308228,
				0.06491522490978241,
				0.9975271821022034
			],
			"scale":[
				1,
				1,
				1.0000001192092896
			],
			"translation":[
				4.936009645462036e-08,
				0.5033220648765564,
				1.0244548320770264e-08
			]
		},
		{
			"children":[
				7
			],
			"name":"Bone_R.001",
			"rotation":[
				0.02498539909720421,
				-0.253879576921463,
				0.2811150848865509,
				0.9251460433006287
			],
			"scale":[
				0.9999999403953552,
				1,
				1
			],
			"translation":[
				-5.21540641784668e-08,
				0.42986375093460083,
				-4.470348358154297e-08
			]
		},
		{
			"children":[
				8
			],
			"name":"Bone_R",
			"rotation":[
				0.5941665172576904,
				0.19774684309959412,
				0.21540819108486176,
				0.7493074536323547
			],
			"translation":[
				-0.037737373262643814,
				1.279781699180603,
				-0.03365340456366539
			]
		},
		{
			"children":[
				3,
				6,
				9
			],
			"name":"Bone",
			"rotation":[
				0.6986228823661804,
				0.2521105110645294,
				0.2521127462387085,
				0.6203256845474243
			],
			"scale":[
				0.9999980330467224,
				0.9999999403953552,
				0.9999865889549255
			],
			"translation":[
				-0.02530132792890072,
				1.63051176071167,
				-1.119621992111206
			]
		},
		{
			"name":"Bone.004",
			"rotation":[
				-0.578345000743866,
				0.014126613736152649,
				-0.03234313428401947,
				0.8150284886360168
			],
			"scale":[
				0.9999999403953552,
				1,
				1
			],
			"translation":[
				6.51925802230835e-09,
				0.37366509437561035,
				-1.6683043213561177e-07
			]
		},
		{
			"children":[
				11
			],
			"name":"Bone.003",
			"rotation":[
				-0.7647572755813599,
				0.012024758383631706,
				0.012024760246276855,
				0.6440941095352173
			],
			"scale":[
				0.9999999403953552,
				1,
				0.9999999403953552
			],
			"translation":[
				-0.02530132792890072,
				1.63051176071167,
				-1.119621992111206
			]
		},
		{
			"name":"Bone_L.005",
			"rotation":[
				-0.17166884243488312,
				0.10487480461597443,
				-0.029587438330054283,
				0.9791096448898315
			],
			"scale":[
				0.9999998807907104,
				1,
				0.9999999403953552
			],
			"translation":[
				-2.0489096641540527e-08,
				0.6791737675666809,
				7.82310962677002e-08
			]
		},
		{
			"children":[
				13
			],
			"name":"Bone_L.004",
			"rotation":[
				-0.16673417389392853,
				-0.2588905692100525,
				0.23418278992176056,
				0.9221354722976685
			],
			"scale":[
				1.0000001192092896,
				1.0000001192092896,
				1
			],
			"translation":[
				-5.960464477539063e-08,
				0.38526397943496704,
				-8.195638656616211e-08
			]
		},
		{
			"children":[
				14
			],
			"name":"Bone_L.003",
			"rotation":[
				-0.9190534949302673,
				-0.26269713044166565,
				-0.26269713044166565,
				0.13161003589630127
			],
			"translation":[
				0.02530132792890072,
				1.63051176071167,
				-1.119621992111206
			]
		},
		{
			"name":"Bone_R.005",
			"rotation":[
				-0.17166884243488312,
				-0.10487480461597443,
				0.029587438330054283,
				0.9791096448898315
			],
			"scale":[
				0.9999998807907104,
				1,
				0.9999999403953552
			],
			"translation":[
				2.0489096641540527e-08,
				0.6791737675666809,
				7.82310962677002e-08
			]
		},
		{
			"children":[
				16
			],
			"name":"Bone_R.004",
			"rotation":[
				-0.16673417389392853,
				0.2588905692100525,
				-0.23418278992176056,
				0.9221354722976685
			],
			"scale":[
				1.0000001192092896,
				1.0000001192092896,
				1
			],
			"translation":[
				5.960464477539063e-08,
				0.38526397943496704,
				-8.195638656616211e-08
			]
		},
		{
			"children":[
				17
			],
			"name":"Bone_R.003",
			"rotation":[
				-0.9190534949302673,
				0.26269713044166565,
				0.26269713044166565,
				0.13161003589630127
			],
			"translation":[
				-0.02530132792890072,
				1.63051176071167,
				-1.119621992111206
			]
		},
		{
			"mesh":0,
			"name":"Horse",
			"skin":0
		},
		{
			"children":[
				19,
				10,
				12,
				15,
				18
			],
			"name":"Armature"
		}
	],
	"animations":[
		{
			"channels":[
				{
					"sampler":0,
					"target":{
						"node":10,
						"path":"translation"
					}
				},
				{
					"sampler":1,
					"target":{
						"node":10,
						"path":"rotation"
					}
				},
				{
					"sampler":2,
					"target":{
						"node":10,
						"path":"scale"
					}
				},
				{
					"sampler":3,
					"target":{
						"node":3,
						"path":"translation"
					}
				},
				{
					"sampler":4,
					"target":{
						"node":3,
						"path":"rotation"
					}
				},
				{
					"sampler":5,
					"target":{
						"node":3,
						"path":"scale"
					}
				},
				{
					"sampler":6,
					"target":{
						"node":0,
						"path":"translation"
					}
				},
				{
					"sampler":7,
					"target":{
						"node":0,
						"path":"rotation"
					}
				},
				{
					"sampler":8,
					"target":{
						"node":0,
						"path":"scale"
					}
				},
				{
					"sampler":9,
					"target":{
						"node":1,
						"path":"translation"
					}
				},
				{
					"sampler":10,
					"target":{
						"node":1,
						"path":"rotation"
					}
				},
				{
					"sampler":11,
					"target":{
						"node":1,
						"path":"scale"
					}
				},
				{
					"sampler":12,
					"target":{
						"node":2,
						"path":"translation"
					}
				},
				{
					"sampler":13,
					"target":{
						"node":2,
						"path":"rotation"
					}
				},
				{
					"sampler":14,
					"target":{
						"node":2,
						"path":"scale"
					}
				},
				{
					"sampler":15,
					"target":{
						"node":6,
						"path":"translation"
					}
				},
				{
					"sampler":16,
					"target":{
						"node":6,
						"path":"rotation"
					}
				},
				{
					"sampler":17,
					"target":{
						"node":6,
						"path":"scale"
					}
				},
				{
					"sampler":18,
					"target":{
						"node":5,
						"path":"translation"
					}
				},
				{
					"sampler":19,
					"target":{
						"node":5,
						"path":"rotation"
					}
				},
				{
					"sampler":20,
					"target":{
						"node":5,
						"path":"scale"
					}
				},
				{
					"sampler":21,
					"target":{
						"node":4,
						"path":"translation"
					}
				},
				{
					"sampler":22,
					"target":{
						"node":4,
						"path":"rotation"
					}
				},
				{
					"sampler":23,
					"target":{
						"node":4,
						"path":"scale"
					}
				},
				{
					"sampler":24,
					"target":{
						"node":9,
						"path":"translation"
					}
				},
				{
					"sampler":25,
					"target":{
						"node":9,
						"path":"rotation"
					}
				},
				{
					"sampler":26,
					"target":{
						"node":9,
						"path":"scale"
					}
				},
				{
					"sampler":27,
					"target":{
						"node":8,
						"path":"translation"
					}
				},
				{
					"sampler":28,
					"target":{
						"node":8,
						"path":"rotation"
					}
				},
				{
					"sampler":29,
					"target":{
						"node":8,
						"path":"scale"
					}
				},
				{
					"sampler":30,
					"target":{
						"node":7,
						"path":"translation"
					}
				},
				{
					"sampler":31,
					"target":{
						"node":7,
						"path":"rotation"
					}
				},
				{
					"sampler":32,
					"target":{
						"node":7,
						"path":"scale"
					}
				},
				{
					"sampler":33,
					"target":{
						"node":12,
						"path":"translation"
					}
				},
				{
					"sampler":34,
					"target":{
						"node":12,
						"path":"rotation"
					}
				},
				{
					"sampler":35,
					"target":{
						"node":12,
						"path":"scale"
					}
				},
				{
					"sampler":36,
					"target":{
						"node":11,
						"path":"translation"
					}
				},
				{
					"sampler":37,
					"target":{
						"node":11,
						"path":"rotation"
					}
				},
				{
					"sampler":38,
					"target":{
						"node":11,
						"path":"scale"
					}
				},
				{
					"sampler":39,
					"target":{
						"node":15,
						"path":"translation"
					}
				},
				{
					"sampler":40,
					"target":{
						"node":15,
						"path":"rotation"
					}
				},
				{
					"sampler":41,
					"target":{
						"node":15,
						"path":"scale"
					}
				},
				{
					"sampler":42,
					"target":{
						"node":14,
						"path":"translation"
					}
				},
				{
					"sampler":43,
					"target":{
						"node":14,
						"path":"rotation"
					}
				},
				{
					"sampler":44,
					"target":{
						"node":14,
						"path":"scale"
					}
				},
				{
					"sampler":45,
					"target":{
						"node":13,
						"path":"translation"
					}
				},
				{
					"sampler":46,
					"target":{
						"node":13,
						"path":"rotation"
					}
				},
				{
					"sampler":47,
					"target":{
						"node":13,
						"path":"scale"
					}
				},
				{
					"sampler":48,
					"target":{
						"node":18,
						"path":"translation"
					}
				},
				{
					"sampler":49,
					"target":{
						"node":18,
						"path":"rotation"
					}
				},
				{
					"sampler":50,
					"target":{
						"node":18,
						"path":"scale"
					}
				},
				{
					"sampler":51,
					"target":{
						"node":17,
						"path":"translation"
					}
				},
				{
					"sampler":52,
					"target":{
						"node":17,
						"path":"rotation"
					}
				},
				{
					"sampler":53,
					"target":{
						"node":17,
						"path":"scale"
					}
				},
				{
					"sampler":54,
					"target":{
						"node":16,
						"path":"translation"
					}
				},
				{
					"sampler":55,
					"target":{
						"node":16,
						"path":"rotation"
					}
				},
				{
					"sampler":56,
					"target":{
						"node":16,
						"path":"scale"
					}
				}
			],
			"name":"Walk",
			"samplers":[
				{
					"input":13,
					"interpolation":"STEP",
					"output":14
				},
				{
					"input":13,
					"interpolation":"STEP",
					"output":15
				},
				{
					"input":13,
					"interpolation":"STEP",
					"output":16
				},
				{
					"input":13,
					"interpolation":"STEP",
					"output":17
				},
				{
					"input":18,
					"interpolation":"LINEAR",
					"output":19
				},
				{
					"input":13,
					"interpolation":"STEP",
					"output":20
				},
				{
					"input":13,
					"interpolation":"STEP",
					"output":21
				},
				{
					"input":13,
					"interpolation":"STEP",
					"output":22
				},
				{
					"input":13,
					"interpolation":"STEP",
					"output":23
				},
				{
					"input":13,
					"interpolation":"STEP",
					"output":24
				},
				{
					"input":13,
					"interpolation":"STEP",
					"output":25
				},
				{
					"input":13,
					"interpolation":"STEP",
					"output":26
				},
				{
					"input":13,
					"interpolation":"STEP",
					"output":27
				},
				{
					"input":13,
					"interpolation":"STEP",
					"output":28
				},
				{
					"input":13,
					"interpolation":"STEP",
					"output":29
				},
				{
					"input":13,
					"interpolation":"STEP",
					"output":30
				},
				{
					"input":18,
					"interpolation":"LINEAR",
					"output":31
				},
				{
					"input":13,
					"interpolation":"STEP",
					"output":32
				},
				{
					"input":13,
					"interpolation":"STEP",
					"output":33
				},
				{
					"input":18,
					"interpolation":"LINEAR",
					"output":34
				},
				{
					"input":13,
					"interpolation":"STEP",
					"output":35
				},
				{
					"input":13,
					"interpolation":"STEP",
					"output":36
				},
				{
					"input":18,
					"interpolation":"LINEAR",
					"output":37
				},
				{
					"input":13,
					"interpolation":"STEP",
					"output":38
				},
				{
					"input":13,
					"interpolation":"STEP",
					"output":39
				},
				{
					"input":18,
					"interpolation":"LINEAR",
					"output":40
				},
				{
					"input":13,
					"interpolation":"STEP",
					"output":41
				},
				{
					"input":13,
					"interpolation":"STEP",
					"output":42
				},
				{
					"input":18,
					"interpolation":"LINEAR",
					"output":43
				},
				{
					"input":13,
					"interpolation":"STEP",
					"output":44
				},
				{
					"input":13,
					"interpolation":"STEP",
					"output":45
				},
				{
					"input":18,
					"interpolation":"LINEAR",
					"output":46
				},
				{
					"input":13,
					"interpolation":"STEP",
					"output":38
				},
				{
					"input":13,
					"interpolation":"STEP",
					"output":47
				},
				{
					"input":18,
					"interpolation":"LINEAR",
					"output":48
				},
				{
					"input":13,
					"interpolation":"STEP",
					"output":49
				},
				{
					"input":13,
					"interpolation":"STEP",
					"output":50
				},
				{
					"input":18,
					"interpolation":"LINEAR",
					"output":51
				},
				{
					"input":13,
					"interpolation":"STEP",
					"output":44
				},
				{
					"input":13,
					"interpolation":"STEP",
					"output":52
				},
				{
					"input":18,
					"interpolation":"LINEAR",
					"output":53
				},
				{
					"input":13,
					"interpolation":"STEP",
					"output":38
				},
				{
					"input":13,
					"interpolation":"STEP",
					"output":54
				},
				{
					"input":18,
					"interpolation":"LINEAR",
					"output":55
				},
				{
					"input":13,
					"interpolation":"STEP",
					"output":56
				},
				{
					"input":13,
					"interpolation":"STEP",
					"output":57
				},
				{
					"input":18,
					"interpolation":"LINEAR",
					"output":58
				},
				{
					"input":13,
					"interpolation":"STEP",
					"output":59
				},
				{
					"input":13,
					"interpolation":"STEP",
					"output":60
				},
				{
					"input":18,
					"interpolation":"LINEAR",
					"output":61
				},
				{
					"input":13,
					"interpolation":"STEP",
					"output":62
				},
				{
					"input":13,
					"interpolation":"STEP",
					"output":63
				},
				{
					"input":18,
					"interpolation":"LINEAR",
					"output":64
				},
				{
					"input":13,
					"interpolation":"STEP",
					"output":65
				},
				{
					"input":13,
					"interpolation":"STEP",
					"output":66
				},
				{
					"input":18,
					"interpolation":"LINEAR",
					"output":67
				},
				{
					"input":13,
					"interpolation":"STEP",
					"output":62
				}
			]
		},
		{
			"channels":[
				{
					"sampler":0,
					"target":{
						"node":10,
						"path":"translation"
					}
				},
				{
					"sampler":1,
					"target":{
						"node":10,
						"path":"rotation"
					}
				},
				{
					"sampler":2,
					"target":{
						"node":10,
						"path":"scale"
					}
				},
				{
					"sampler":3,
					"target":{
						"node":3,
						"path":"translation"
					}
				},
				{
					"sampler":4,
					"target":{
						"node":3,
						"path":"rotation"
					}
				},
				{
					"sampler":5,
					"target":{
						"node":3,
						"path":"scale"
					}
				},
				{
					"sampler":6,
					"target":{
						"node":0,
						"path":"translation"
					}
				},
				{
					"sampler":7,
					"target":{
						"node":0,
						"path":"rotation"
					}
				},
				{
					"sampler":8,
					"target":{
						"node":0,
						"path":"scale"
					}
				},
				{
					"sampler":9,
					"target":{
						"node":1,
						"path":"translation"
					}
				},
				{
					"sampler":10,
					"target":{
						"node":1,
						"path":"rotation"
					}
				},
				{
					"sampler":11,
					"target":{
						"node":1,
						"path":"scale"
					}
				},
				{
					"sampler":12,
					"target":{
						"node":2,
						"path":"translation"
					}
				},
				{
					"sampler":13,
					"target":{
						"node":2,
						"path":"rotation"
					}
				},
				{
					"sampler":14,
					"target":{
						"node":2,
						"path":"scale"
					}
				},
				{
					"sampler":15,
					"target":{
						"node":6,
						"path":"translation"
					}
				},
				{
					"sampler":16,
					"target":{
						"node":6,
						"path":"rotation"
					}
				},
				{
					"sampler":17,
					"target":{
						"node":6,
						"path":"scale"
					}
				},
				{
					"sampler":18,
					"target":{
						"node":5,
						"path":"translation"
					}
				},
				{
					"sampler":19,
					"target":{
						"node":5,
						"path":"rotation"
					}
				},
				{
					"sampler":20,
					"target":{
						"node":5,
						"path":"scale"
					}
				},
				{
					"sampler":21,
					"target":{
						"node":4,
						"path":"translation"
					}
				},
				{
					"sampler":22,
					"target":{
						"node":4,
						"path":"rotation"
					}
				},
				{
					"sampler":23,
					"target":{
						"node":4,
						"path":"scale"
					}
				},
				{
					"sampler":24,
					"target":{
						"node":9,
						"path":"translation"
					}
				},
				{
					"sampler":25,
					"target":{
						"node":9,
						"path":"rotation"
					}
				},
				{
					"sampler":26,
					"target":{
						"node":9,
						"path":"scale"
					}
				},
				{
					"sampler":27,
					"target":{
						"node":8,
						"path":"translation"
					}
				},
				{
					"sampler":28,
					"target":{
						"node":8,
						"path":"rotation"
					}
				},
				{
					"sampler":29,
					"target":{
						"node":8,
						"path":"scale"
					}
				},
				{
					"sampler":30,
					"target":{
						"node":7,
						"path":"translation"
					}
				},
				{
					"sampler":31,
					"target":{
						"node":7,
						"path":"rotation"
					}
				},
				{
					"sampler":32,
					"target":{
						"node":7,
						"path":"scale"
					}
				},
				{
					"sampler":33,
					"target":{
						"node":12,
						"path":"translation"
					}
				},
				{
					"sampler":34,
					"target":{
						"node":12,
						"path":"rotation"
					}
				},
				{
					"sampler":35,
					"target":{
						"node":12,
						"path":"scale"
					}
				},
				{
					"sampler":36,
					"target":{
						"node":11,
						"path":"translation"
					}
				},
				{
					"sampler":37,
					"target":{
						"node":11,
						"path":"rotation"
					}
				},
				{
					"sampler":38,
					"target":{
						"node":11,
						"path":"scale"
					}
				},
				{
					"sampler":39,
					"target":{
						"node":15,
						"path":"translation"
					}
				},
				{
					"sampler":40,
					"target":{
						"node":15,
						"path":"rotation"
					}
				},
				{
					"sampler":41,
					"target":{
						"node":15,
						"path":"scale"
					}
				},
				{
					"sampler":42,
					"target":{
						"node":14,
						"path":"translation"
					}
				},
				{
					"sampler":43,
					"target":{
						"node":14,
						"path":"rotation"
					}
				},
				{
					"sampler":44,
					"target":{
						"node":14,
						"path":"scale"
					}
				},
				{
					"sampler":45,
					"target":{
						"node":13,
						"path":"translation"
					}
				},
				{
					"sampler":46,
					"target":{
						"node":13,
						"path":"rotation"
					}
				},
				{
					"sampler":47,
					"target":{
						"node":13,
						"path":"scale"
					}
				},
				{
					"sampler":48,
					"target":{
						"node":18,
						"path":"translation"
					}
				},
				{
					"sampler":49,
					"target":{
						"node":18,
						"path":"rotation"
					}
				},
				{
					"sampler":50,
					"target":{
						"node":18,
						"path":"scale"
					}
				},
				{
					"sampler":51,
					"target":{
						"node":17,
						"path":"translation"
					}
				},
				{
					"sampler":52,
					"target":{
						"node":17,
						"path":"rotation"
					}
				},
				{
					"sampler":53,
					"target":{
						"node":17,
						"path":"scale"
					}
				},
				{
					"sampler":54,
					"target":{
						"node":16,
						"path":"translation"
					}
				},
				{
					"sampler":55,
					"target":{
						"node":16,
						"path":"rotation"
					}
				},
				{
					"sampler":56,
					"target":{
						"node":16,
						"path":"scale"
					}
				}
			],
			"name":"Trot",
			"samplers":[
				{
					"input":68,
					"interpolation":"STEP",
					"output":14
				},
				{
					"input":68,
					"interpolation":"STEP",
					"output":15
				},
				{
					"input":68,
					"interpolation":"STEP",
					"output":16
				},
				{
					"input":68,
					"interpolation":"STEP",
					"output":17
				},
				{
					"input":69,
					"interpolation":"LINEAR",
					"output":70
				},
				{
					"input":68,
					"interpolation":"STEP",
					"output":20
				},
				{
					"input":68,
					"interpolation":"STEP",
					"output":21
				},
				{
					"input":68,
					"interpolation":"STEP",
					"output":22
				},
				{
					"input":68,
					"interpolation":"STEP",
					"output":23
				},
				{
					"input":68,
					"interpolation":"STEP",
					"output":24
				},
				{
					"input":68,
					"interpolation":"STEP",
					"output":25
				},
				{
					"input":68,
					"interpolation":"STEP",
					"output":26
				},
				{
					"input":68,
					"interpolation":"STEP",
					"output":27
				},
				{
					"input":68,
					"interpolation":"STEP",
					"output":28
				},
				{
					"input":68,
					"interpolation":"STEP",
					"output":29
				},
				{
					"input":68,
					"interpolation":"STEP",
					"output":30
				},
				{
					"input":69,
					"interpolation":"LINEAR",
					"output":71
				},
				{
					"input":68,
					"interpolation":"STEP",
					"output":72
				},
				{
					"input":68,
					"interpolation":"STEP",
					"output":73
				},
				{
					"input":69,
					"interpolation":"LINEAR",
					"output":74
				},
				{
					"input":68,
					"interpolation":"STEP",
					"output":75
				},
				{
					"input":68,
					"interpolation":"STEP",
					"output":76
				},
				{
					"input":69,
					"interpolation":"LINEAR",
					"output":77
				},
				{
					"input":68,
					"interpolation":"STEP",
					"output":78
				},
				{
					"input":68,
					"interpolation":"STEP",
					"output":39
				},
				{
					"input":69,
					"interpolation":"LINEAR",
					"output":79
				},
				{
					"input":68,
					"interpolation":"STEP",
					"output":80
				},
				{
					"input":68,
					"interpolation":"STEP",
					"output":81
				},
				{
					"input":69,
					"interpolation":"LINEAR",
					"output":82
				},
				{
					"input":68,
					"interpolation":"STEP",
					"output":38
				},
				{
					"input":68,
					"interpolation":"STEP",
					"output":83
				},
				{
					"input":69,
					"interpolation":"LINEAR",
					"output":84
				},
				{
					"input":68,
					"interpolation":"STEP",
					"output":85
				},
				{
					"input":68,
					"interpolation":"STEP",
					"output":47
				},
				{
					"input":69,
					"interpolation":"LINEAR",
					"output":86
				},
				{
					"input":68,
					"interpolation":"STEP",
					"output":49
				},
				{
					"input":68,
					"interpolation":"STEP",
					"output":87
				},
				{
					"input":69,
					"interpolation":"LINEAR",
					"output":88
				},
				{
					"input":68,
					"interpolation":"STEP",
					"output":89
				},
				{
					"input":68,
					"interpolation":"STEP",
					"output":52
				},
				{
					"input":69,
					"interpolation":"LINEAR",
					"output":90
				},
				{
					"input":68,
					"interpolation":"STEP",
					"output":38
				},
				{
					"input":68,
					"interpolation":"STEP",
					"output":91
				},
				{
					"input":69,
					"interpolation":"LINEAR",
					"output":92
				},
				{
					"input":68,
					"interpolation":"STEP",
					"output":85
				},
				{
					"input":68,
					"interpolation":"STEP",
					"output":93
				},
				{
					"input":69,
					"interpolation":"LINEAR",
					"output":94
				},
				{
					"input":68,
					"interpolation":"STEP",
					"output":95
				},
				{
					"input":68,
					"interpolation":"STEP",
					"output":60
				},
				{
					"input":69,
					"interpolation":"LINEAR",
					"output":96
				},
				{
					"input":68,
					"interpolation":"STEP",
					"output":97
				},
				{
					"input":68,
					"interpolation":"STEP",
					"output":98
				},
				{
					"input":69,
					"interpolation":"LINEAR",
					"output":99
				},
				{
					"input":68,
					"interpolation":"STEP",
					"output":100
				},
				{
					"input":68,
					"interpolation":"STEP",
					"output":101
				},
				{
					"input":69,
					"interpolation":"LINEAR",
					"output":102
				},
				{
					"input":68,
					"interpolation":"STEP",
					"output":103
				}
			]
		},
		{
			"channels":[
				{
					"sampler":0,
					"target":{
						"node":10,
						"path":"translation"
					}
				},
				{
					"sampler":1,
					"target":{
						"node":10,
						"path":"rotation"
					}
				},
				{
					"sampler":2,
					"target":{
						"node":10,
						"path":"scale"
					}
				},
				{
					"sampler":3,
					"target":{
						"node":3,
						"path":"translation"
					}
				},
				{
					"sampler":4,
					"target":{
						"node":3,
						"path":"rotation"
					}
				},
				{
					"sampler":5,
					"target":{
						"node":3,
						"path":"scale"
					}
				},
				{
					"sampler":6,
					"target":{
						"node":0,
						"path":"translation"
					}
				},
				{
					"sampler":7,
					"target":{
						"node":0,
						"path":"rotation"
					}
				},
				{
					"sampler":8,
					"target":{
						"node":0,
						"path":"scale"
					}
				},
				{
					"sampler":9,
					"target":{
						"node":1,
						"path":"translation"
					}
				},
				{
					"sampler":10,
					"target":{
						"node":1,
						"path":"rotation"
					}
				},
				{
					"sampler":11,
					"target":{
						"node":1,
						"path":"scale"
					}
				},
				{
					"sampler":12,
					"target":{
						"node":2,
						"path":"translation"
					}
				},
				{
					"sampler":13,
					"target":{
						"node":2,
						"path":"rotation"
					}
				},
				{
					"sampler":14,
					"target":{
						"node":2,
						"path":"scale"
					}
				},
				{
					"sampler":15,
					"target":{
						"node":6,
						"path":"translation"
					}
				},
				{
					"sampler":16,
					"target":{
						"node":6,
						"path":"rotation"
					}
				},
				{
					"sampler":17,
					"target":{
						"node":6,
						"path":"scale"
					}
				},
				{
					"sampler":18,
					"target":{
						"node":5,
						"path":"translation"
					}
				},
				{
					"sampler":19,
					"target":{
						"node":5,
						"path":"rotation"
					}
				},
				{
					"sampler":20,
					"target":{
						"node":5,
						"path":"scale"
					}
				},
				{
					"sampler":21,
					"target":{
						"node":4,
						"path":"translation"
					}
				},
				{
					"sampler":22,
					"target":{
						"node":4,
						"path":"rotation"
					}
				},
				{
					"sampler":23,
					"target":{
						"node":4,
						"path":"scale"
					}
				},
				{
					"sampler":24,
					"target":{
						"node":9,
						"path":"translation"
					}
				},
				{
					"sampler":25,
					"target":{
						"node":9,
						"path":"rotation"
					}
				},
				{
					"sampler":26,
					"target":{
						"node":9,
						"path":"scale"
					}
				},
				{
					"sampler":27,
					"target":{
						"node":8,
						"path":"translation"
					}
				},
				{
					"sampler":28,
					"target":{
						"node":8,
						"path":"rotation"
					}
				},
				{
					"sampler":29,
					"target":{
						"node":8,
						"path":"scale"
					}
				},
				{
					"sampler":30,
					"target":{
						"node":7,
						"path":"translation"
					}
				},
				{
					"sampler":31,
					"target":{
						"node":7,
						"path":"rotation"
					}
				},
				{
					"sampler":32,
					"target":{
						"node":7,
						"path":"scale"
					}
				},
				{
					"sampler":33,
					"target":{
						"node":12,
						"path":"translation"
					}
				},
				{
					"sampler":34,
					"target":{
						"node":12,
						"path":"rotation"
					}
				},
				{
					"sampler":35,
					"target":{
						"node":12,
						"path":"scale"
					}
				},
				{
					"sampler":36,
					"target":{
						"node":11,
						"path":"translation"
					}
				},
				{
					"sampler":37,
					"target":{
						"node":11,
						"path":"rotation"
					}
				},
				{
					"sampler":38,
					"target":{
						"node":11,
						"path":"scale"
					}
				},
				{
					"sampler":39,
					"target":{
						"node":15,
						"path":"translation"
					}
				},
				{
					"sampler":40,
					"target":{
						"node":15,
						"path":"rotation"
					}
				},
				{
					"sampler":41,
					"target":{
						"node":15,
						"path":"scale"
					}
				},
				{
					"sampler":42,
					"target":{
						"node":14,
						"path":"translation"
					}
				},
				{
					"sampler":43,
					"target":{
						"node":14,
						"path":"rotation"
					}
				},
				{
					"sampler":44,
					"target":{
						"node":14,
						"path":"scale"
					}
				},
				{
					"sampler":45,
					"target":{
						"node":13,
						"path":"translation"
					}
				},
				{
					"sampler":46,
					"target":{
						"node":13,
						"path":"rotation"
					}
				},
				{
					"sampler":47,
					"target":{
						"node":13,
						"path":"scale"
					}
				},
				{
					"sampler":48,
					"target":{
						"node":18,
						"path":"translation"
					}
				},
				{
					"sampler":49,
					"target":{
						"node":18,
						"path":"rotation"
					}
				},
				{
					"sampler":50,
					"target":{
						"node":18,
						"path":"scale"
					}
				},
				{
					"sampler":51,
					"target":{
						"node":17,
						"path":"translation"
					}
				},
				{
					"sampler":52,
					"target":{
						"node":17,
						"path":"rotation"
					}
				},
				{
					"sampler":53,
					"target":{
						"node":17,
						"path":"scale"
					}
				},
				{
					"sampler":54,
					"target":{
						"node":16,
						"path":"translation"
					}
				},
				{
					"sampler":55,
					"target":{
						"node":16,
						"path":"rotation"
					}
				},
				{
					"sampler":56,
					"target":{
						"node":16,
						"path":"scale"
					}
				}
			],
			"name":"Idle",
			"samplers":[
				{
					"input":104,
					"interpolation":"STEP",
					"output":14
				},
				{
					"input":104,
					"interpolation":"STEP",
					"output":15
				},
				{
					"input":104,
					"interpolation":"STEP",
					"output":16
				},
				{
					"input":104,
					"interpolation":"STEP",
					"output":17
				},
				{
					"input":105,
					"interpolation":"LINEAR",
					"output":106
				},
				{
					"input":104,
					"interpolation":"STEP",
					"output":20
				},
				{
					"input":104,
					"interpolation":"STEP",
					"output":21
				},
				{
					"input":104,
					"interpolation":"STEP",
					"output":22
				},
				{
					"input":104,
					"interpolation":"STEP",
					"output":23
				},
				{
					"input":104,
					"interpolation":"STEP",
					"output":24
				},
				{
					"input":104,
					"interpolation":"STEP",
					"output":25
				},
				{
					"input":104,
					"interpolation":"STEP",
					"output":26
				},
				{
					"input":104,
					"interpolation":"STEP",
					"output":27
				},
				{
					"input":105,
					"interpolation":"LINEAR",
					"output":107
				},
				{
					"input":104,
					"interpolation":"STEP",
					"output":29
				},
				{
					"input":104,
					"interpolation":"STEP",
					"output":30
				},
				{
					"input":104,
					"interpolation":"STEP",
					"output":108
				},
				{
					"input":104,
					"interpolation":"STEP",
					"output":109
				},
				{
					"input":104,
					"interpolation":"STEP",
					"output":110
				},
				{
					"input":104,
					"interpolation":"STEP",
					"output":111
				},
				{
					"input":104,
					"interpolation":"STEP",
					"output":112
				},
				{
					"input":104,
					"interpolation":"STEP",
					"output":113
				},
				{
					"input":104,
					"interpolation":"STEP",
					"output":114
				},
				{
					"input":104,
					"interpolation":"STEP",
					"output":115
				},
				{
					"input":104,
					"interpolation":"STEP",
					"output":39
				},
				{
					"input":104,
					"interpolation":"STEP",
					"output":116
				},
				{
					"input":104,
					"interpolation":"STEP",
					"output":41
				},
				{
					"input":104,
					"interpolation":"STEP",
					"output":117
				},
				{
					"input":104,
					"interpolation":"STEP",
					"output":118
				},
				{
					"input":104,
					"interpolation":"STEP",
					"output":119
				},
				{
					"input":104,
					"interpolation":"STEP",
					"output":120
				},
				{
					"input":104,
					"interpolation":"STEP",
					"output":121
				},
				{
					"input":104,
					"interpolation":"STEP",
					"output":122
				},
				{
					"input":104,
					"interpolation":"STEP",
					"output":47
				},
				{
					"input":105,
					"interpolation":"LINEAR",
					"output":123
				},
				{
					"input":104,
					"interpolation":"STEP",
					"output":49
				},
				{
					"input":104,
					"interpolation":"STEP",
					"output":124
				},
				{
					"input":105,
					"interpolation":"LINEAR",
					"output":125
				},
				{
					"input":104,
					"interpolation":"STEP",
					"output":103
				},
				{
					"input":104,
					"interpolation":"STEP",
					"output":52
				},
				{
					"input":104,
					"interpolation":"STEP",
					"output":126
				},
				{
					"input":104,
					"interpolation":"STEP",
					"output":127
				},
				{
					"input":104,
					"interpolation":"STEP",
					"output":128
				},
				{
					"input":104,
					"interpolation":"STEP",
					"output":129
				},
				{
					"input":104,
					"interpolation":"STEP",
					"output":130
				},
				{
					"input":104,
					"interpolation":"STEP",
					"output":131
				},
				{
					"input":104,
					"interpolation":"STEP",
					"output":132
				},
				{
					"input":104,
					"interpolation":"STEP",
					"output":133
				},
				{
					"input":104,
					"interpolation":"STEP",
					"output":60
				},
				{
					"input":104,
					"interpolation":"STEP",
					"output":134
				},
				{
					"input":104,
					"interpolation":"STEP",
					"output":127
				},
				{
					"input":104,
					"interpolation":"STEP",
					"output":135
				},
				{
					"input":104,
					"interpolation":"STEP",
					"output":136
				},
				{
					"input":104,
					"interpolation":"STEP",
					"output":130
				},
				{
					"input":104,
					"interpolation":"STEP",
					"output":137
				},
				{
					"input":104,
					"interpolation":"STEP",
					"output":138
				},
				{
					"input":104,
					"interpolation":"STEP",
					"output":133
				}
			]
		}
	],
	"materials":[
		{
			"doubleSided":true,
			"name":"HorseSkin",
			"normalTexture":{
				"index":0
			},
			"pbrMetallicRoughness":{
				"baseColorTexture":{
					"index":1
				},
				"metallicFactor":0,
				"roughnessFactor":0.7200000286102295
			}
		},
		{
			"doubleSided":true,
			"name":"HorseEye",
			"pbrMetallicRoughness":{
				"baseColorFactor":[
					0.03500000014901161,
					0.02199999988079071,
					0.014999999664723873,
					1
				],
				"metallicFactor":0,
				"roughnessFactor":0.07999999821186066
			}
		}
	],
	"meshes":[
		{
			"name":"Horse",
			"primitives":[
				{
					"attributes":{
						"POSITION":0,
						"NORMAL":1,
						"TEXCOORD_0":2,
						"JOINTS_0":3,
						"WEIGHTS_0":4
					},
					"indices":5,
					"material":0
				},
				{
					"attributes":{
						"POSITION":6,
						"NORMAL":7,
						"TEXCOORD_0":8,
						"JOINTS_0":9,
						"WEIGHTS_0":10
					},
					"indices":11,
					"material":1
				}
			]
		}
	],
	"textures":[
		{
			"sampler":0,
			"source":0
		},
		{
			"sampler":0,
			"source":1
		}
	],
	"images":[
		{
			"mimeType":"image/png",
			"name":"HorseNormal",
			"uri":"HorseNormal.png"
		},
		{
			"mimeType":"image/jpeg",
			"name":"HorseAlbedo",
			"uri":"HorseAlbedo.jpg"
		}
	],
	"skins":[
		{
			"inverseBindMatrices":12,
			"joints":[
				10,
				3,
				0,
				1,
				2,
				6,
				5,
				4,
				9,
				8,
				7,
				12,
				11,
				15,
				14,
				13,
				18,
				17,
				16
			],
			"name":"Armature"
		}
	],
	"accessors":[
		{
			"bufferView":0,
			"componentType":5126,
			"count":4316,
			"max":[
				0.44589102268218994,
				2.2057666778564453,
				1.530261754989624
			],
			"min":[
				-0.44589102268218994,
				0,
				-1.530261754989624
			],
			"type":"VEC3"
		},
		{
			"bufferView":1,
			"componentType":5126,
			"count":4316,
			"type":"VEC3"
		},
		{
			"bufferView":2,
			"componentType":5126,
			"count":4316,
			"type":"VEC2"
		},
		{
			"bufferView":3,
			"componentType":5121,
			"count":4316,
			"type":"VEC4"
		},
		{
			"bufferView":4,
			"componentType":5126,
			"count":4316,
			"type":"VEC4"
		},
		{
			"bufferView":5,
			"componentType":5123,
			"count":22170,
			"type":"SCALAR"
		},
		{
			"bufferView":6,
			"componentType":5126,
			"count":3968,
			"max":[
				0.14317220449447632,
				1.9128241539001465,
				1.3261491060256958
			],
			"min":[
				-0.1429467797279358,
				1.8272604942321777,
				1.2404615879058838
			],
			"type":"VEC3"
		},
		{
			"bufferView":7,
			"componentType":5126,
			"count":3968,
			"type":"VEC3"
		},
		{
			"bufferView":8,
			"componentType":5126,
			"count":3968,
			"type":"VEC2"
		},
		{
			"bufferView":9,
			"componentType":5121,
			"count":3968,
			"type":"VEC4"
		},
		{
			"bufferView":10,
			"componentType":5126,
			"count":3968,
			"type":"VEC4"
		},
		{
			"bufferView":11,
			"componentType":5123,
			"count":5760,
			"type":"SCALAR"
		},
		{
			"bufferView":12,
			"componentType":5126,
			"count":19,
			"type":"MAT4"
		},
		{
			"bufferView":13,
			"componentType":5126,
			"count":2,
			"max":[
				1.2333333333333334
			],
			"min":[
				0.03333333333333333
			],
			"type":"SCALAR"
		},
		{
			"bufferView":14,
			"componentType":5126,
			"count":2,
			"type":"VEC3"
		},
		{
			"bufferView":15,
			"componentType":5126,
			"count":2,
			"type":"VEC4"
		},
		{
			"bufferView":16,
			"componentType":5126,
			"count":2,
			"type":"VEC3"
		},
		{
			"bufferView":17,
			"componentType":5126,
			"count":2,
			"type":"VEC3"
		},
		{
			"bufferView":18,
			"componentType":5126,
			"count":37,
			"max":[
				1.2333333333333334
			],
			"min":[
				0.03333333333333333
			],
			"type":"SCALAR"
		},
		{
			"bufferView":19,
			"componentType":5126,
			"count":37,
			"type":"VEC4"
		},
		{
			"bufferView":20,
			"componentType":5126,
			"count":2,
			"type":"VEC3"
		},
		{
			"bufferView":21,
			"componentType":5126,
			"count":2,
			"type":"VEC3"
		},
		{
			"bufferView":22,
			"componentType":5126,
			"count":2,
			"type":"VEC4"
		},
		{
			"bufferView":23,
			"componentType":5126,
			"count":2,
			"type":"VEC3"
		},
		{
			"bufferView":24,
			"componentType":5126,
			"count":2,
			"type":"VEC3"
		},
		{
			"bufferView":25,
			"componentType":5126,
			"count":2,
			"type":"VEC4"
		},
		{
			"bufferView":26,
			"componentType":5126,
			"count":2,
			"type":"VEC3"
		},
		{
			"bufferView":27,
			"componentType":5126,
			"count":2,
			"type":"VEC3"
		},
		{
			"bufferView":28,
			"componentType":5126,
			"count":2,
			"type":"VEC4"
		},
		{
			"bufferView":29,
			"componentType":5126,
			"count":2,
			"type":"VEC3"
		},
		{
			"bufferView":30,
			"componentType":5126,
			"count":2,
			"type":"VEC3"
		},
		{
			"bufferView":31,
			"componentType":5126,
			"count":37,
			"type":"VEC4"
		},
		{
			"bufferView":32,
			"componentType":5126,
			"count":2,
			"type":"VEC3"
		},
		{
			"bufferView":33,
			"componentType":5126,
			"count":2,
			"type":"VEC3"
		},
		{
			"bufferView":34,
			"componentType":5126,
			"count":37,
			"type":"VEC4"
		},
		{
			"bufferView":35,
			"componentType":5126,
			"count":2,
			"type":"VEC3"
		},
		{
			"bufferView":36,
			"componentType":5126,
			"count":2,
			"type":"VEC3"
		},
		{
			"bufferView":37,
			"componentType":5126,
			"count":37,
			"type":"VEC4"
		},
		{
			"bufferView":38,
			"componentType":5126,
			"count":2,
			"type":"VEC3"
		},
		{
			"bufferView":39,
			"componentType":5126,
			"count":2,
			"type":"VEC3"
		},
		{
			"bufferView":40,
			"componentType":5126,
			"count":37,
			"type":"VEC4"
		},
		{
			"bufferView":41,
			"componentType":5126,
			"count":2,
			"type":"VEC3"
		},
		{
			"bufferView":42,
			"componentType":5126,
			"count":2,
			"type":"VEC3"
		},
		{
			"bufferView":43,
			"componentType":5126,
			"count":37,
			"type":"VEC4"
		},
		{
			"bufferView":44,
			"componentType":5126,
			"count":2,
			"type":"VEC3"
		},
		{
			"bufferView":45,
			"componentType":5126,
			"count":2,
			"type":"VEC3"
		},
		{
			"bufferView":46,
			"componentType":5126,
			"count":37,
			"type":"VEC4"
		},
		{
			"bufferView":47,
			"componentType":5126,
			"count":2,
			"type":"VEC3"
		},
		{
			"bufferView":48,
			"componentType":5126,
			"count":37,
			"type":"VEC4"
		},
		{
			"bufferView":49,
			"componentType":5126,
			"count":2,
			"type":"VEC3"
		},
		{
			"bufferView":50,
			"componentType":5126,
			"count":2,
			"type":"VEC3"
		},
		{
			"bufferView":51,
			"componentType":5126,
			"count":37,
			"type":"VEC4"
		},
		{
			"bufferView":52,
			"componentType":5126,
			"count":2,
			"type":"VEC3"
		},
		{
			"bufferView":53,
			"componentType":5126,
			"count":37,
			"type":"VEC4"
		},
		{
			"bufferView":54,
			"componentType":5126,
			"count":2,
			"type":"VEC3"
		},
		{
			"bufferView":55,
			"componentType":5126,
			"count":37,
			"type":"VEC4"
		},
		{
			"bufferView":56,
			"componentType":5126,
			"count":2,
			"type":"VEC3"
		},
		{
			"bufferView":57,
			"componentType":5126,
			"count":2,
			"type":"VEC3"
		},
		{
			"bufferView":58,
			"componentType":5126,
			"count":37,
			"type":"VEC4"
		},
		{
			"bufferView":59,
			"componentType":5126,
			"count":2,
			"type":"VEC3"
		},
		{
			"bufferView":60,
			"componentType":5126,
			"count":2,
			"type":"VEC3"
		},
		{
			"bufferView":61,
			"componentType":5126,
			"count":37,
			"type":"VEC4"
		},
		{
			"bufferView":62,
			"componentType":5126,
			"count":2,
			"type":"VEC3"
		},
		{
			"bufferView":63,
			"componentType":5126,
			"count":2,
			"type":"VEC3"
		},
		{
			"bufferView":64,
			"componentType":5126,
			"count":37,
			"type":"VEC4"
		},
		{
			"bufferView":65,
			"componentType":5126,
			"count":2,
			"type":"VEC3"
		},
		{
			"bufferView":66,
			"componentType":5126,
			"count":2,
			"type":"VEC3"
		},
		{
			"bufferView":67,
			"componentType":5126,
			"count":37,
			"type":"VEC4"
		},
		{
			"bufferView":68,
			"componentType":5126,
			"count":2,
			"max":[
				0.7666666666666667
			],
			"min":[
				0.03333333333333333
			],
			"type":"SCALAR"
		},
		{
			"bufferView":69,
			"componentType":5126,
			"count":23,
			"max":[
				0.7666666666666667
			],
			"min":[
				0.03333333333333333
			],
			"type":"SCALAR"
		},
		{
			"bufferView":70,
			"componentType":5126,
			"count":23,
			"type":"VEC4"
		},
		{
			"bufferView":71,
			"componentType":5126,
			"count":23,
			"type":"VEC4"
		},
		{
			"bufferView":72,
			"componentType":5126,
			"count":2,
			"type":"VEC3"
		},
		{
			"bufferView":73,
			"componentType":5126,
			"count":2,
			"type":"VEC3"
		},
		{
			"bufferView":74,
			"componentType":5126,
			"count":23,
			"type":"VEC4"
		},
		{
			"bufferView":75,
			"componentType":5126,
			"count":2,
			"type":"VEC3"
		},
		{
			"bufferView":76,
			"componentType":5126,
			"count":2,
			"type":"VEC3"
		},
		{
			"bufferView":77,
			"componentType":5126,
			"count":23,
			"type":"VEC4"
		},
		{
			"bufferView":78,
			"componentType":5126,
			"count":2,
			"type":"VEC3"
		},
		{
			"bufferView":79,
			"componentType":5126,
			"count":23,
			"type":"VEC4"
		},
		{
			"bufferView":80,
			"componentType":5126,
			"count":2,
			"type":"VEC3"
		},
		{
			"bufferView":81,
			"componentType":5126,
			"count":2,
			"type":"VEC3"
		},
		{
			"bufferView":82,
			"componentType":5126,
			"count":23,
			"type":"VEC4"
		},
		{
			"bufferView":83,
			"componentType":5126,
			"count":2,
			"type":"VEC3"
		},
		{
			"bufferView":84,
			"componentType":5126,
			"count":23,
			"type":"VEC4"
		},
		{
			"bufferView":85,
			"componentType":5126,
			"count":2,
			"type":"VEC3"
		},
		{
			"bufferView":86,
			"componentType":5126,
			"count":23,
			"type":"VEC4"
		},
		{
			"bufferView":87,
			"componentType":5126,
			"count":2,
			"type":"VEC3"
		},
		{
			"bufferView":88,
			"componentType":5126,
			"count":23,
			"type":"VEC4"
		},
		{
			"bufferView":89,
			"componentType":5126,
			"count":2,
			"type":"VEC3"
		},
		{
			"bufferView":90,
			"componentType":5126,
			"count":23,
			"type":"VEC4"
		},
		{
			"bufferView":91,
			"componentType":5126,
			"count":2,
			"type":"VEC3"
		},
		{
			"bufferView":92,
			"componentType":5126,
			"count":23,
			"type":"VEC4"
		},
		{
			"bufferView":93,
			"componentType":5126,
			"count":2,
			"type":"VEC3"
		},
		{
			"bufferView":94,
			"componentType":5126,
			"count":23,
			"type":"VEC4"
		},
		{
			"bufferView":95,
			"componentType":5126,
			"count":2,
			"type":"VEC3"
		},
		{
			"bufferView":96,
			"componentType":5126,
			"count":23,
			"type":"VEC4"
		},
		{
			"bufferView":97,
			"componentType":5126,
			"count":2,
			"type":"VEC3"
		},
		{
			"bufferView":98,
			"componentType":5126,
			"count":2,
			"type":"VEC3"
		},
		{
			"bufferView":99,
			"componentType":5126,
			"count":23,
			"type":"VEC4"
		},
		{
			"bufferView":100,
			"componentType":5126,
			"count":2,
			"type":"VEC3"
		},
		{
			"bufferView":101,
			"componentType":5126,
			"count":2,
			"type":"VEC3"
		},
		{
			"bufferView":102,
			"componentType":5126,
			"count":23,
			"type":"VEC4"
		},
		{
			"bufferView":103,
			"componentType":5126,
			"count":2,
			"type":"VEC3"
		},
		{
			"bufferView":104,
			"componentType":5126,
			"count":2,
			"max":[
				4.033333333333333
			],
			"min":[
				0.03333333333333333
			],
			"type":"SCALAR"
		},
		{
			"bufferView":105,
			"componentType":5126,
			"count":121,
			"max":[
				4.033333333333333
			],
			"min":[
				0.03333333333333333
			],
			"type":"SCALAR"
		},
		{
			"bufferView":106,
			"componentType":5126,
			"count":121,
			"type":"VEC4"
		},
		{
			"bufferView":107,
			"componentType":5126,
			"count":121,
			"type":"VEC4"
		},
		{
			"bufferView":108,
			"componentType":5126,
			"count":2,
			"type":"VEC4"
		},
		{
			"bufferView":109,
			"componentType":5126,
			"count":2,
			"type":"VEC3"
		},
		{
			"bufferView":110,
			"componentType":5126,
			"count":2,
			"type":"VEC3"
		},
		{
			"bufferView":111,
			"componentType":5126,
			"count":2,
			"type":"VEC4"
		},
		{
			"bufferView":112,
			"componentType":5126,
			"count":2,
			"type":"VEC3"
		},
		{
			"bufferView":113,
			"componentType":5126,
			"count":2,
			"type":"VEC3"
		},
		{
			"bufferView":114,
			"componentType":5126,
			"count":2,
			"type":"VEC4"
		},
		{
			"bufferView":115,
			"componentType":5126,
			"count":2,
			"type":"VEC3"
		},
		{
			"bufferView":116,
			"componentType":5126,
			"count":2,
			"type":"VEC4"
		},
		{
			"bufferView":117,
			"componentType":5126,
			"count":2,
			"type":"VEC3"
		},
		{
			"bufferView":118,
			"componentType":5126,
			"count":2,
			"type":"VEC4"
		},
		{
			"bufferView":119,
			"componentType":5126,
			"count":2,
			"type":"VEC3"
		},
		{
			"bufferView":120,
			"componentType":5126,
			"count":2,
			"type":"VEC3"
		},
		{
			"bufferView":121,
			"componentType":5126,
			"count":2,
			"type":"VEC4"
		},
		{
			"bufferView":122,
			"componentType":5126,
			"count":2,
			"type":"VEC3"
		},
		{
			"bufferView":123,
			"componentType":5126,
			"count":121,
			"type":"VEC4"
		},
		{
			"bufferView":124,
			"componentType":5126,
			"count":2,
			"type":"VEC3"
		},
		{
			"bufferView":125,
			"componentType":5126,
			"count":121,
			"type":"VEC4"
		},
		{
			"bufferView":126,
			"componentType":5126,
			"count":2,
			"type":"VEC4"
		},
		{
			"bufferView":127,
			"componentType":5126,
			"count":2,
			"type":"VEC3"
		},
		{
			"bufferView":128,
			"componentType":5126,
			"count":2,
			"type":"VEC3"
		},
		{
			"bufferView":129,
			"componentType":5126,
			"count":2,
			"type":"VEC4"
		},
		{
			"bufferView":130,
			"componentType":5126,
			"count":2,
			"type":"VEC3"
		},
		{
			"bufferView":131,
			"componentType":5126,
			"count":2,
			"type":"VEC3"
		},
		{
			"bufferView":132,
			"componentType":5126,
			"count":2,
			"type":"VEC4"
		},
		{
			"bufferView":133,
			"componentType":5126,
			"count":2,
			"type":"VEC3"
		},
		{
			"bufferView":134,
			"componentType":5126,
			"count":2,
			"type":"VEC4"
		},
		{
			"bufferView":135,
			"componentType":5126,
			"count":2,
			"type":"VEC3"
		},
		{
			"bufferView":136,
			"componentType":5126,
			"count":2,
			"type":"VEC4"
		},
		{
			"bufferView":137,
			"componentType":5126,
			"count":2,
			"type":"VEC3"
		},
		{
			"bufferView":138,
			"componentType":5126,
			"count":2,
			"type":"VEC4"
		}
	],
	"bufferViews":[
		{
			"buffer":0,
			"byteLength":51792,
			"byteOffset":0,
			"target":34962
		},
		{
			"buffer":0,
			"byteLength":51792,
			"byteOffset":51792,
			"target":34962
		},
		{
			"buffer":0,
			"byteLength":34528,
			"byteOffset":103584,
			"target":34962
		},
		{
			"buffer":0,
			"byteLength":17264,
			"byteOffset":138112,
			"target":34962
		},
		{
			"buffer":0,
			"byteLength":69056,
			"byteOffset":155376,
			"target":34962
		},
		{
			"buffer":0,
			"byteLength":44340,
			"byteOffset":224432,
			"target":34963
		},
		{
			"buffer":0,
			"byteLength":47616,
			"byteOffset":268772,
			"target":34962
		},
		{
			"buffer":0,
			"byteLength":47616,
			"byteOffset":316388,
			"target":34962
		},
		{
			"buffer":0,
			"byteLength":31744,
			"byteOffset":364004,
			"target":34962
		},
		{
			"buffer":0,
			"byteLength":15872,
			"byteOffset":395748,
			"target":34962
		},
		{
			"buffer":0,
			"byteLength":63488,
			"byteOffset":411620,
			"target":34962
		},
		{
			"buffer":0,
			"byteLength":11520,
			"byteOffset":475108,
			"target":34963
		},
		{
			"buffer":0,
			"byteLength":1216,
			"byteOffset":486628
		},
		{
			"buffer":0,
			"byteLength":8,
			"byteOffset":487844
		},
		{
			"buffer":0,
			"byteLength":24,
			"byteOffset":487852
		},
		{
			"buffer":0,
			"byteLength":32,
			"byteOffset":487876
		},
		{
			"buffer":0,
			"byteLength":24,
			"byteOffset":487908
		},
		{
			"buffer":0,
			"byteLength":24,
			"byteOffset":487932
		},
		{
			"buffer":0,
			"byteLength":148,
			"byteOffset":487956
		},
		{
			"buffer":0,
			"byteLength":592,
			"byteOffset":488104
		},
		{
			"buffer":0,
			"byteLength":24,
			"byteOffset":488696
		},
		{
			"buffer":0,
			"byteLength":24,
			"byteOffset":488720
		},
		{
			"buffer":0,
			"byteLength":32,
			"byteOffset":488744
		},
		{
			"buffer":0,
			"byteLength":24,
			"byteOffset":488776
		},
		{
			"buffer":0,
			"byteLength":24,
			"byteOffset":488800
		},
		{
			"buffer":0,
			"byteLength":32,
			"byteOffset":488824
		},
		{
			"buffer":0,
			"byteLength":24,
			"byteOffset":488856
		},
		{
			"buffer":0,
			"byteLength":24,
			"byteOffset":488880
		},
		{
			"buffer":0,
			"byteLength":32,
			"byteOffset":488904
		},
		{
			"buffer":0,
			"byteLength":24,
			"byteOffset":488936
		},
		{
			"buffer":0,
			"byteLength":24,
			"byteOffset":488960
		},
		{
			"buffer":0,
			"byteLength":592,
			"byteOffset":488984
		},
		{
			"buffer":0,
			"byteLength":24,
			"byteOffset":489576
		},
		{
			"buffer":0,
			"byteLength":24,
			"byteOffset":489600
		},
		{
			"buffer":0,
			"byteLength":592,
			"byteOffset":489624
		},
		{
			"buffer":0,
			"byteLength":24,
			"byteOffset":490216
		},
		{
			"buffer":0,
			"byteLength":24,
			"byteOffset":490240
		},
		{
			"buffer":0,
			"byteLength":592,
			"byteOffset":490264
		},
		{
			"buffer":0,
			"byteLength":24,
			"byteOffset":490856
		},
		{
			"buffer":0,
			"byteLength":24,
			"byteOffset":490880
		},
		{
			"buffer":0,
			"byteLength":592,
			"byteOffset":490904
		},
		{
			"buffer":0,
			"byteLength":24,
			"byteOffset":491496
		},
		{
			"buffer":0,
			"byteLength":24,
			"byteOffset":491520
		},
		{
			"buffer":0,
			"byteLength":592,
			"byteOffset":491544
		},
		{
			"buffer":0,
			"byteLength":24,
			"byteOffset":492136
		},
		{
			"buffer":0,
			"byteLength":24,
			"byteOffset":492160
		},
		{
			"buffer":0,
			"byteLength":592,
			"byteOffset":492184
		},
		{
			"buffer":0,
			"byteLength":24,
			"byteOffset":492776
		},
		{
			"buffer":0,
			"byteLength":592,
			"byteOffset":492800
		},
		{
			"buffer":0,
			"byteLength":24,
			"byteOffset":493392
		},
		{
			"buffer":0,
			"byteLength":24,
			"byteOffset":493416
		},
		{
			"buffer":0,
			"byteLength":592,
			"byteOffset":493440
		},
		{
			"buffer":0,
			"byteLength":24,
			"byteOffset":494032
		},
		{
			"buffer":0,
			"byteLength":592,
			"byteOffset":494056
		},
		{
			"buffer":0,
			"byteLength":24,
			"byteOffset":494648
		},
		{
			"buffer":0,
			"byteLength":592,
			"byteOffset":494672
		},
		{
			"buffer":0,
			"byteLength":24,
			"byteOffset":495264
		},
		{
			"buffer":0,
			"byteLength":24,
			"byteOffset":495288
		},
		{
			"buffer":0,
			"byteLength":592,
			"byteOffset":495312
		},
		{
			"buffer":0,
			"byteLength":24,
			"byteOffset":495904
		},
		{
			"buffer":0,
			"byteLength":24,
			"byteOffset":495928
		},
		{
			"buffer":0,
			"byteLength":592,
			"byteOffset":495952
		},
		{
			"buffer":0,
			"byteLength":24,
			"byteOffset":496544
		},
		{
			"buffer":0,
			"byteLength":24,
			"byteOffset":496568
		},
		{
			"buffer":0,
			"byteLength":592,
			"byteOffset":496592
		},
		{
			"buffer":0,
			"byteLength":24,
			"byteOffset":497184
		},
		{
			"buffer":0,
			"byteLength":24,
			"byteOffset":497208
		},
		{
			"buffer":0,
			"byteLength":592,
			"byteOffset":497232
		},
		{
			"buffer":0,
			"byteLength":8,
			"byteOffset":497824
		},
		{
			"buffer":0,
			"byteLength":92,
			"byteOffset":497832
		},
		{
			"buffer":0,
			"byteLength":368,
			"byteOffset":497924
		},
		{
			"buffer":0,
			"byteLength":368,
			"byteOffset":498292
		},
		{
			"buffer":0,
			"byteLength":24,
			"byteOffset":498660
		},
		{
			"buffer":0,
			"byteLength":24,
			"byteOffset":498684
		},
		{
			"buffer":0,
			"byteLength":368,
			"byteOffset":498708
		},
		{
			"buffer":0,
			"byteLength":24,
			"byteOffset":499076
		},
		{
			"buffer":0,
			"byteLength":24,
			"byteOffset":499100
		},
		{
			"buffer":0,
			"byteLength":368,
			"byteOffset":499124
		},
		{
			"buffer":0,
			"byteLength":24,
			"byteOffset":499492
		},
		{
			"buffer":0,
			"byteLength":368,
			"byteOffset":499516
		},
		{
			"buffer":0,
			"byteLength":24,
			"byteOffset":499884
		},
		{
			"buffer":0,
			"byteLength":24,
			"byteOffset":499908
		},
		{
			"buffer":0,
			"byteLength":368,
			"byteOffset":499932
		},
		{
			"buffer":0,
			"byteLength":24,
			"byteOffset":500300
		},
		{
			"buffer":0,
			"byteLength":368,
			"byteOffset":500324
		},
		{
			"buffer":0,
			"byteLength":24,
			"byteOffset":500692
		},
		{
			"buffer":0,
			"byteLength":368,
			"byteOffset":500716
		},
		{
			"buffer":0,
			"byteLength":24,
			"byteOffset":501084
		},
		{
			"buffer":0,
			"byteLength":368,
			"byteOffset":501108
		},
		{
			"buffer":0,
			"byteLength":24,
			"byteOffset":501476
		},
		{
			"buffer":0,
			"byteLength":368,
			"byteOffset":501500
		},
		{
			"buffer":0,
			"byteLength":24,
			"byteOffset":501868
		},
		{
			"buffer":0,
			"byteLength":368,
			"byteOffset":501892
		},
		{
			"buffer":0,
			"byteLength":24,
			"byteOffset":502260
		},
		{
			"buffer":0,
			"byteLength":368,
			"byteOffset":502284
		},
		{
			"buffer":0,
			"byteLength":24,
			"byteOffset":502652
		},
		{
			"buffer":0,
			"byteLength":368,
			"byteOffset":502676
		},
		{
			"buffer":0,
			"byteLength":24,
			"byteOffset":503044
		},
		{
			"buffer":0,
			"byteLength":24,
			"byteOffset":503068
		},
		{
			"buffer":0,
			"byteLength":368,
			"byteOffset":503092
		},
		{
			"buffer":0,
			"byteLength":24,
			"byteOffset":503460
		},
		{
			"buffer":0,
			"byteLength":24,
			"byteOffset":503484
		},
		{
			"buffer":0,
			"byteLength":368,
			"byteOffset":503508
		},
		{
			"buffer":0,
			"byteLength":24,
			"byteOffset":503876
		},
		{
			"buffer":0,
			"byteLength":8,
			"byteOffset":503900
		},
		{
			"buffer":0,
			"byteLength":484,
			"byteOffset":503908
		},
		{
			"buffer":0,
			"byteLength":1936,
			"byteOffset":504392
		},
		{
			"buffer":0,
			"byteLength":1936,
			"byteOffset":506328
		},
		{
			"buffer":0,
			"byteLength":32,
			"byteOffset":508264
		},
		{
			"buffer":0,
			"byteLength":24,
			"byteOffset":508296
		},
		{
			"buffer":0,
			"byteLength":24,
			"byteOffset":508320
		},
		{
			"buffer":0,
			"byteLength":32,
			"byteOffset":508344
		},
		{
			"buffer":0,
			"byteLength":24,
			"byteOffset":508376
		},
		{
			"buffer":0,
			"byteLength":24,
			"byteOffset":508400
		},
		{
			"buffer":0,
			"byteLength":32,
			"byteOffset":508424
		},
		{
			"buffer":0,
			"byteLength":24,
			"byteOffset":508456
		},
		{
			"buffer":0,
			"byteLength":32,
			"byteOffset":508480
		},
		{
			"buffer":0,
			"byteLength":24,
			"byteOffset":508512
		},
		{
			"buffer":0,
			"byteLength":32,
			"byteOffset":508536
		},
		{
			"buffer":0,
			"byteLength":24,
			"byteOffset":508568
		},
		{
			"buffer":0,
			"byteLength":24,
			"byteOffset":508592
		},
		{
			"buffer":0,
			"byteLength":32,
			"byteOffset":508616
		},
		{
			"buffer":0,
			"byteLength":24,
			"byteOffset":508648
		},
		{
			"buffer":0,
			"byteLength":1936,
			"byteOffset":508672
		},
		{
			"buffer":0,
			"byteLength":24,
			"byteOffset":510608
		},
		{
			"buffer":0,
			"byteLength":1936,
			"byteOffset":510632
		},
		{
			"buffer":0,
			"byteLength":32,
			"byteOffset":512568
		},
		{
			"buffer":0,
			"byteLength":24,
			"byteOffset":512600
		},
		{
			"buffer":0,
			"byteLength":24,
			"byteOffset":512624
		},
		{
			"buffer":0,
			"byteLength":32,
			"byteOffset":512648
		},
		{
			"buffer":0,
			"byteLength":24,
			"byteOffset":512680
		},
		{
			"buffer":0,
			"byteLength":24,
			"byteOffset":512704
		},
		{
			"buffer":0,
			"byteLength":32,
			"byteOffset":512728
		},
		{
			"buffer":0,
			"byteLength":24,
			"byteOffset":512760
		},
		{
			"buffer":0,
			"byteLength":32,
			"byteOffset":512784
		},
		{
			"buffer":0,
			"byteLength":24,
			"byteOffset":512816
		},
		{
			"buffer":0,
			"byteLength":32,
			"byteOffset":512840
		},
		{
			"buffer":0,
			"byteLength":24,
			"byteOffset":512872
		},
		{
			"buffer":0,
			"byteLength":32,
			"byteOffset":512896
		}
	],
	"samplers":[
		{
			"magFilter":9729,
			"minFilter":9987
		}
	],
	"buffers":[
		{
			"byteLength":512928,
			"uri":"Horse.bin"
		}
	]
}
