{
  "asset": {
    "version": "2.0",
    "generator": "OloEngine issue #970 fixture generator"
  },
  "extensionsUsed": [
    "KHR_materials_transmission",
    "KHR_materials_ior",
    "KHR_materials_volume"
  ],
  "scene": 0,
  "scenes": [
    {
      "name": "TransmissionTest",
      "nodes": [
        0,
        1,
        2
      ]
    }
  ],
  "nodes": [
    {
      "name": "ThinGlassQuad",
      "mesh": 0,
      "translation": [
        -1.2,
        0.0,
        0.0
      ]
    },
    {
      "name": "TintedVolumeGlassQuad",
      "mesh": 1,
      "translation": [
        0.0,
        0.0,
        0.0
      ]
    },
    {
      "name": "OpaqueControlQuad",
      "mesh": 2,
      "translation": [
        1.2,
        0.0,
        0.0
      ]
    }
  ],
  "meshes": [
    {
      "name": "ThinGlassMesh",
      "primitives": [
        {
          "attributes": {
            "POSITION": 0,
            "NORMAL": 1
          },
          "indices": 2,
          "material": 0
        }
      ]
    },
    {
      "name": "TintedVolumeGlassMesh",
      "primitives": [
        {
          "attributes": {
            "POSITION": 0,
            "NORMAL": 1
          },
          "indices": 2,
          "material": 1
        }
      ]
    },
    {
      "name": "OpaqueControlMesh",
      "primitives": [
        {
          "attributes": {
            "POSITION": 0,
            "NORMAL": 1
          },
          "indices": 2,
          "material": 2
        }
      ]
    }
  ],
  "materials": [
    {
      "name": "ThinGlass",
      "pbrMetallicRoughness": {
        "baseColorFactor": [
          1.0,
          1.0,
          1.0,
          1.0
        ],
        "metallicFactor": 0.0,
        "roughnessFactor": 0.0
      },
      "extensions": {
        "KHR_materials_transmission": {
          "transmissionFactor": 1.0
        },
        "KHR_materials_ior": {
          "ior": 1.5
        }
      }
    },
    {
      "name": "TintedVolumeGlass",
      "pbrMetallicRoughness": {
        "baseColorFactor": [
          1.0,
          1.0,
          1.0,
          1.0
        ],
        "metallicFactor": 0.0,
        "roughnessFactor": 0.1
      },
      "extensions": {
        "KHR_materials_transmission": {
          "transmissionFactor": 0.9
        },
        "KHR_materials_ior": {
          "ior": 1.52
        },
        "KHR_materials_volume": {
          "thicknessFactor": 0.8,
          "attenuationColor": [
            0.9,
            0.4,
            0.2
          ],
          "attenuationDistance": 0.5
        }
      }
    },
    {
      "name": "OpaqueControl",
      "pbrMetallicRoughness": {
        "baseColorFactor": [
          0.8,
          0.1,
          0.1,
          1.0
        ],
        "metallicFactor": 0.0,
        "roughnessFactor": 0.5
      }
    }
  ],
  "buffers": [
    {
      "byteLength": 108,
      "uri": "data:application/octet-stream;base64,"
    }
  ],
  "bufferViews": [
    {
      "buffer": 0,
      "byteOffset": 0,
      "byteLength": 48,
      "target": 34962
    },
    {
      "buffer": 0,
      "byteOffset": 48,
      "byteLength": 48,
      "target": 34962
    },
    {
      "buffer": 0,
      "byteOffset": 96,
      "byteLength": 12,
      "target": 34963
    }
  ],
  "accessors": [
    {
      "bufferView": 0,
      "componentType": 5126,
      "count": 4,
      "type": "VEC3",
      "min": [
        -0.5,
        -0.5,
        0.0
      ],
      "max": [
        0.5,
        0.5,
        0.0
      ]
    },
    {
      "bufferView": 1,
      "componentType": 5126,
      "count": 4,
      "type": "VEC3"
    },
    {
      "bufferView": 2,
      "componentType": 5123,
      "count": 6,
      "type": "SCALAR"
    }
  ]
}
